<?xml version="1.0"?>
<svg version="1.1" xmlns="http://www.w3.org/2000/svg" width="257" height="100" style=""><path fill="#e63797" d=""/><path fill="#b81639" d="M46.412824375,63.75390625q0-0.396484375,0.0341796875-0.833984375t0.0615234375-0.8203125l0.08203125-2.05078125q0.13671875-2.4609375,0.3349609375-4.83984375t0.3349609375-4.8125q0.08203125-1.33984375,0.123046875-2.6318359375t0.123046875-2.6318359375q-0.0546875-0.109375-0.0546875-0.150390625q0-0.19140625,0.1435546875-0.30078125t0.3349609375-0.1845703125t0.4033203125-0.1025390625t0.3212890625-0.02734375l0.314453125,0q0.423828125,0.0546875,0.615234375,0.2666015625t0.24609375,0.505859375t0.02734375,0.62890625t-0.02734375,0.6220703125q0,1.982421875-0.095703125,4.0400390625t-0.21875,4.12890625t-0.2255859375,4.142578125t-0.1025390625,4.0947265625l0,0.95703125q0,0.642578125-0.3623046875,0.84765625t-1.0048828125,0.205078125q-0.560546875,0-0.984375-0.24609375t-0.423828125-0.806640625z M52.68370328125,58.572265625q0-1.2578125,0.2939453125-2.4677734375t0.4990234375-2.4130859375q0.0546875-0.314453125,0.4306640625-0.3896484375t0.6357421875-0.0751953125q0.451171875,0,0.724609375,0.13671875q0.109375,0.0546875,0.205078125,0.123046875t0.095703125,0.177734375q0,1.17578125-0.2802734375,2.296875t-0.2802734375,2.37890625q0,0.423828125,0.0615234375,0.7998046875t0.1162109375,0.7451171875l0.08203125,0.396484375q0,0.109375,0.013671875,0.19140625t0.041015625,0.19140625q0,0.24609375-0.3486328125,0.3349609375t-0.6083984375,0.0888671875q-0.396484375,0-0.7314453125-0.1572265625t-0.5263671875-0.5400390625l-0.19140625-0.396484375q-0.1640625-0.314453125-0.1640625-0.7041015625t-0.068359375-0.7177734375z M53.55870328125,50.341796875l0-0.259765625q0-0.642578125,0.3212890625-1.1484375t0.9638671875-0.505859375q0.08203125,0,0.1572265625,0.013671875t0.1572265625,0.013671875q0.1640625,0.02734375,0.4306640625,0.1298828125t0.2666015625,0.3212890625l0,0.02734375q-0.0546875,0.109375-0.068359375,0.2255859375t-0.068359375,0.1982421875l0.02734375-0.02734375q-0.1640625,0.423828125-0.2666015625,0.68359375t-0.2255859375,0.4169921875t-0.3076171875,0.2255859375t-0.5263671875,0.068359375q-0.0546875,0-0.19140625-0.013671875t-0.2939453125-0.0546875t-0.2666015625-0.109375t-0.109375-0.205078125z M58.3803634375,59.16015625q0-0.779296875,0.1982421875-1.6064453125t0.62890625-1.490234375t1.0869140625-1.080078125t1.5859375-0.4169921875q0.697265625,0,1.4697265625,0.2392578125t1.4150390625,0.68359375t1.0458984375,1.0869140625t0.4033203125,1.435546875q0,0.95703125-0.3486328125,1.818359375t-0.9775390625,1.5380859375t-1.4697265625,1.06640625t-1.8251953125,0.3896484375q-0.806640625,0-1.408203125-0.2939453125t-1.0048828125-0.7861328125t-0.6015625-1.162109375t-0.1982421875-1.421875z M60.3901290625,59.1328125q0,0.24609375,0.0751953125,0.724609375t0.2255859375,0.9365234375t0.3896484375,0.79296875t0.5810546875,0.3076171875q0.724609375-0.08203125,1.1962890625-0.4716796875t0.765625-0.9501953125t0.41015625-1.216796875t0.1162109375-1.244140625q0-0.751953125-0.2939453125-1.2578125t-0.9638671875-0.8203125q0,0.02734375,0.02734375,0.02734375t0.02734375-0.02734375l-0.341796875-0.08203125q-0.13671875-0.0546875-0.3349609375-0.123046875t-0.3896484375-0.30078125q-0.533203125,0.19140625-0.8271484375,0.4921875t-0.4443359375,0.7314453125t-0.1845703125,1.0322265625t-0.0341796875,1.44921875z M68.73913296875,55.072265625q0-0.560546875,0.1982421875-0.943359375t0.8408203125-0.3828125q0.24609375,0,0.615234375,0.0751953125t0.423828125,0.3759765625q0.13671875,0.806640625,0.150390625,1.75t0.095703125,1.77734375q0.314453125-0.615234375,0.806640625-1.326171875t1.12109375-1.3125t1.3671875-0.998046875t1.50390625-0.396484375q0.0546875,0,0.205078125,0.041015625t0.2802734375,0.1162109375t0.1572265625,0.1708984375t-0.150390625,0.177734375q-0.0546875,0.1640625-0.232421875,0.1982421875t-0.314453125,0.0341796875q-0.08203125,0-0.259765625-0.068359375q-1.01171875,0.533203125-1.72265625,1.44921875t-1.162109375,2.0302734375t-0.65625,2.3515625t-0.205078125,2.4130859375q0,0.587890625-0.2666015625,0.7109375t-0.8544921875,0.123046875q-0.314453125,0-0.6630859375-0.068359375t-0.4853515625-0.4375q-0.24609375-0.779296875-0.4033203125-1.791015625t-0.2392578125-2.0849609375t-0.1162109375-2.1123046875t-0.0341796875-1.873046875z M83.22229703125,50.21875q0-0.19140625,0.41015625-0.328125t0.9296875-0.2255859375t1.0048828125-0.1298828125t0.6630859375-0.068359375q0-0.369140625,0.02734375-0.7451171875t0.150390625-0.669921875t0.3896484375-0.4716796875t0.7451171875-0.177734375q0.396484375,0,0.6015625,0.095703125t0.4375,0.396484375q0.0546875,0.1640625,0.0546875,0.314453125l0,0.4580078125t-0.02734375,0.4716796875q0.505859375-0.0546875,1.0048828125-0.1298828125t1.0048828125-0.0751953125q0.369140625,0,0.505859375,0.013671875t0.2734375,0.328125q0.109375,0.314453125-0.2666015625,0.478515625t-0.90234375,0.24609375t-1.0458984375,0.123046875t-0.62890625,0.041015625q-0.1640625,2.3515625-0.3349609375,4.662109375t-0.1708984375,4.689453125q0,1.06640625,0.068359375,2.201171875t0.3828125,2.146484375q0.08203125,0.314453125,0.2734375,0.587890625t0.19140625,0.587890625q0,0.19140625-0.150390625,0.30078125t-0.3623046875,0.1845703125t-0.423828125,0.0888671875t-0.3486328125,0.013671875q-0.861328125,0-1.3125-0.642578125t-0.6494140625-1.5380859375t-0.2119140625-1.8388671875t-0.013671875-1.53125q0-1.203125,0.0478515625-2.4609375t0.1162109375-2.48828125t0.19140625-2.40625t0.287109375-2.1875q-0.478515625,0.0546875-0.9365234375,0.123046875t-0.9365234375,0.068359375q-0.109375,0-0.2939453125-0.013671875t-0.3486328125-0.068359375t-0.2802734375-0.150390625t-0.1162109375-0.2734375z M93.6767696875,55.072265625q0-0.560546875,0.1982421875-0.943359375t0.8408203125-0.3828125q0.24609375,0,0.615234375,0.0751953125t0.423828125,0.3759765625q0.13671875,0.806640625,0.150390625,1.75t0.095703125,1.77734375q0.314453125-0.615234375,0.806640625-1.326171875t1.12109375-1.3125t1.3671875-0.998046875t1.50390625-0.396484375q0.0546875,0,0.205078125,0.041015625t0.2802734375,0.1162109375t0.1572265625,0.1708984375t-0.150390625,0.177734375q-0.0546875,0.1640625-0.232421875,0.1982421875t-0.314453125,0.0341796875q-0.08203125,0-0.259765625-0.068359375q-1.01171875,0.533203125-1.72265625,1.44921875t-1.162109375,2.0302734375t-0.65625,2.3515625t-0.205078125,2.4130859375q0,0.587890625-0.2666015625,0.7109375t-0.8544921875,0.123046875q-0.314453125,0-0.6630859375-0.068359375t-0.4853515625-0.4375q-0.24609375-0.779296875-0.4033203125-1.791015625t-0.2392578125-2.0849609375t-0.1162109375-2.1123046875t-0.0341796875-1.873046875z M103.39296109375,59.4609375q0-0.95703125,0.2119140625-2.255859375t0.7177734375-2.4609375t1.3330078125-1.9755859375t2.0849609375-0.8134765625q1.17578125,0,1.763671875,0.6767578125t0.587890625,1.8251953125q0,0.751953125-0.2802734375,1.6474609375t-0.7998046875,1.6953125t-1.23046875,1.3330078125t-1.5859375,0.533203125l-0.35546875-0.02734375q0,0.369140625,0.109375,0.9912109375t0.3212890625,1.2373046875t0.546875,1.080078125t0.8134765625,0.46484375q0.697265625,0,1.33984375-0.560546875t1.216796875-1.244140625t1.06640625-1.244140625t0.90234375-0.560546875q0.21875,0,0.451171875,0.068359375t0.259765625,0.3828125q0,0.19140625-0.1025390625,0.314453125t-0.1845703125,0.2734375q-0.423828125,0.724609375-0.9228515625,1.380859375t-1.1279296875,1.189453125t-1.3740234375,0.8408203125t-1.6474609375,0.3076171875q-1.17578125,0-1.955078125-0.4169921875t-1.2578125-1.12109375t-0.6904296875-1.626953125t-0.2119140625-1.9345703125z M105.84022671875,58.421875l0.3828125,0.341796875q0.2734375,0.24609375,0.546875,0.109375t0.4921875-0.4990234375t0.4033203125-0.8955078125t0.328125-1.09375t0.2119140625-1.09375t0.068359375-0.888671875l0-0.46484375t-0.041015625-0.4921875t-0.1435546875-0.3896484375t-0.3212890625-0.1982421875q-0.068359375-0.013671875-0.123046875-0.013671875q-0.46484375,0-0.79296875,0.587890625q-0.35546875,0.65625-0.57421875,1.5927734375t-0.314453125,1.9208984375t-0.123046875,1.4765625z M114.818136875,58.900390625q0-0.9296875,0.2529296875-1.791015625t0.7587890625-1.5380859375t1.2646484375-1.080078125t1.7568359375-0.4033203125q0.615234375,0,1.3603515625,0.1845703125t1.4013671875,0.546875t1.09375,0.9228515625t0.4375,1.28515625q0,0.341796875-0.1162109375,0.51953125t-0.4716796875,0.177734375l-0.150390625-0.02734375q0.396484375,1.06640625,0.68359375,2.1875t0.560546875,2.2421875q0.109375,0.21875,0.1640625,0.3896484375t0.0546875,0.3349609375q0,0.21875-0.123046875,0.3623046875t-0.3212890625,0.2119140625t-0.41015625,0.095703125t-0.3759765625,0.02734375q-0.587890625,0-0.8818359375-0.205078125t-0.423828125-0.560546875t-0.1572265625-0.7998046875t-0.109375-0.8955078125q-0.1640625,0.533203125-0.4306640625,1.0390625t-0.62890625,0.9091796875t-0.8544921875,0.642578125t-1.107421875,0.2392578125q-0.90234375,0-1.517578125-0.51953125t-0.9912109375-1.2783203125t-0.546875-1.6201171875t-0.1708984375-1.599609375z M116.759543125,58.708984375q0,0.505859375,0.068359375,1.06640625t0.2255859375,1.107421875t0.4033203125,1.0322265625t0.615234375,0.8544921875q0.669921875-0.724609375,0.9912109375-1.763671875t0.57421875-2.0029296875t0.57421875-1.654296875t0.9912109375-0.6904296875q0.423828125,0,0.7109375,0.150390625q-0.13671875-0.341796875-0.451171875-0.6630859375t-0.7041015625-0.587890625t-0.806640625-0.4375t-0.7861328125-0.1708984375q-0.109375,0-0.2529296875,0.0341796875t-0.2255859375,0.0068359375q-0.560546875,0.1640625-0.9228515625,0.5673828125t-0.587890625,0.9501953125t-0.3212890625,1.12109375t-0.095703125,1.080078125z M126.10659390625,50.21875q0-0.19140625,0.41015625-0.328125t0.9296875-0.2255859375t1.0048828125-0.1298828125t0.6630859375-0.068359375q0-0.369140625,0.02734375-0.7451171875t0.150390625-0.669921875t0.3896484375-0.4716796875t0.7451171875-0.177734375q0.396484375,0,0.6015625,0.095703125t0.4375,0.396484375q0.0546875,0.1640625,0.0546875,0.314453125l0,0.4580078125t-0.02734375,0.4716796875q0.505859375-0.0546875,1.0048828125-0.1298828125t1.0048828125-0.0751953125q0.369140625,0,0.505859375,0.013671875t0.2734375,0.328125q0.109375,0.314453125-0.2666015625,0.478515625t-0.90234375,0.24609375t-1.0458984375,0.123046875t-0.62890625,0.041015625q-0.1640625,2.3515625-0.3349609375,4.662109375t-0.1708984375,4.689453125q0,1.06640625,0.068359375,2.201171875t0.3828125,2.146484375q0.08203125,0.314453125,0.2734375,0.587890625t0.19140625,0.587890625q0,0.19140625-0.150390625,0.30078125t-0.3623046875,0.1845703125t-0.423828125,0.0888671875t-0.3486328125,0.013671875q-0.861328125,0-1.3125-0.642578125t-0.6494140625-1.5380859375t-0.2119140625-1.8388671875t-0.013671875-1.53125q0-1.203125,0.0478515625-2.4609375t0.1162109375-2.48828125t0.19140625-2.40625t0.287109375-2.1875q-0.478515625,0.0546875-0.9365234375,0.123046875t-0.9365234375,0.068359375q-0.109375,0-0.2939453125-0.013671875t-0.3486328125-0.068359375t-0.2802734375-0.150390625t-0.1162109375-0.2734375z M136.59524625,55.4755859375q-0.0341796875-0.4580078125,0.0546875-0.8408203125t0.35546875-0.6220703125t0.8544921875-0.2392578125q0.13671875,0,0.3349609375,0.0341796875t0.3896484375,0.0888671875t0.3212890625,0.1640625t0.1298828125,0.30078125l0,1.544921875q0.533203125-0.615234375,1.162109375-0.8818359375t1.435546875-0.2666015625q0.615234375,0,1.216796875,0.2802734375t1.134765625,0.7451171875t0.9228515625,1.025390625t0.5673828125,1.12109375q0.109375-0.505859375,0.24609375-1.2373046875t0.4033203125-1.4013671875t0.7041015625-1.1484375t1.162109375-0.478515625q0.779296875,0,1.3125,0.560546875t0.8681640625,1.4560546875t0.505859375,2.0029296875t0.2529296875,2.1875t0.08203125,2.0166015625l0,1.4697265625q0,0.1640625-0.123046875,0.2666015625t-0.3076171875,0.1572265625t-0.3828125,0.068359375t-0.3076171875,0.013671875q-0.423828125,0-0.7724609375-0.1298828125t-0.3486328125-0.6630859375l0-1.23046875t-0.02734375-1.5927734375t-0.095703125-1.708984375t-0.177734375-1.5517578125t-0.2802734375-1.12109375t-0.4169921875-0.4375q-0.341796875,0-0.4921875,0.3828125t-0.2529296875,0.970703125t-0.1572265625,1.244140625t-0.150390625,1.244140625t-0.3076171875,0.9638671875t-0.5810546875,0.3759765625q-0.396484375,0-0.697265625-0.3759765625t-0.5947265625-0.9365234375t-0.587890625-1.203125t-0.6494140625-1.203125q-0.35546875-0.57421875-0.765625-0.9296875q-0.369140625-0.341796875-0.833984375-0.328125l-0.068359375,0q-0.615234375,0.02734375-0.9638671875,0.4443359375t-0.533203125,1.0185546875t-0.2255859375,1.2919921875t-0.041015625,1.2099609375q0,0.4921875,0.08203125,1.1484375q0.0546875,0.4375,0.0546875,0.833984375q0,0.205078125-0.013671875,0.396484375q-0.041015625,0.57421875-0.3076171875,0.9638671875t-0.9912109375,0.3896484375q-0.2734375,0-0.68359375-0.0546875t-0.546875-0.369140625q-0.314453125-0.560546875-0.478515625-1.4150390625t-0.24609375-1.763671875t-0.095703125-1.8046875t-0.013671875-1.5380859375q0-0.451171875-0.0341796875-0.9091796875z M153.83780484375,59.4609375q0-0.95703125,0.2119140625-2.255859375t0.7177734375-2.4609375t1.3330078125-1.9755859375t2.0849609375-0.8134765625q1.17578125,0,1.763671875,0.6767578125t0.587890625,1.8251953125q0,0.751953125-0.2802734375,1.6474609375t-0.7998046875,1.6953125t-1.23046875,1.3330078125t-1.5859375,0.533203125l-0.35546875-0.02734375q0,0.369140625,0.109375,0.9912109375t0.3212890625,1.2373046875t0.546875,1.080078125t0.8134765625,0.46484375q0.697265625,0,1.33984375-0.560546875t1.216796875-1.244140625t1.06640625-1.244140625t0.90234375-0.560546875q0.21875,0,0.451171875,0.068359375t0.259765625,0.3828125q0,0.19140625-0.1025390625,0.314453125t-0.1845703125,0.2734375q-0.423828125,0.724609375-0.9228515625,1.380859375t-1.1279296875,1.189453125t-1.3740234375,0.8408203125t-1.6474609375,0.3076171875q-1.17578125,0-1.955078125-0.4169921875t-1.2578125-1.12109375t-0.6904296875-1.626953125t-0.2119140625-1.9345703125z M156.28507046875,58.421875l0.3828125,0.341796875q0.2734375,0.24609375,0.546875,0.109375t0.4921875-0.4990234375t0.4033203125-0.8955078125t0.328125-1.09375t0.2119140625-1.09375t0.068359375-0.888671875l0-0.46484375t-0.041015625-0.4921875t-0.1435546875-0.3896484375t-0.3212890625-0.1982421875q-0.068359375-0.013671875-0.123046875-0.013671875q-0.46484375,0-0.79296875,0.587890625q-0.35546875,0.65625-0.57421875,1.5927734375t-0.314453125,1.9208984375t-0.123046875,1.4765625z M165.2766525,58.96875l0-0.396484375q0-0.4921875,0.02734375-0.9296875q0.02734375-0.615234375,0.02734375-1.01171875q0-0.21875,0.02734375-0.4990234375t0.13671875-0.4443359375q0.13671875-0.13671875,0.3212890625-0.2802734375t0.4033203125-0.1435546875q0.697265625,0,1.09375,0.1572265625t0.423828125,0.6494140625l0.0546875,0.423828125q0.24609375-0.587890625,0.65625-1.4560546875t0.9501953125-1.654296875t1.216796875-1.33984375t1.4287109375-0.5537109375q0.697265625,0,1.1484375,0.65625t0.7177734375,1.6748046875t0.3759765625,2.26953125t0.150390625,2.4541015625t0.0546875,2.1943359375t0.095703125,1.4970703125q0.0546875,0.423828125,0.1845703125,0.8955078125t0.1298828125,0.8681640625q0,0.109375-0.1572265625,0.2119140625t-0.3349609375,0.1708984375t-0.3623046875,0.109375t-0.2666015625,0.041015625q-0.533203125,0-0.7587890625-0.7998046875t-0.2802734375-2.0029296875t-0.0546875-2.6044921875t-0.095703125-2.6044921875t-0.3896484375-2.0029296875t-0.9365234375-0.8271484375q-0.587890625,0-1.216796875,0.7587890625t-1.080078125,2.0166015625q-0.4375,1.2578125-0.6015625,2.857421875q-0.0546875,0.505859375-0.0546875,1.01171875q0,1.107421875,0.232421875,2.21484375q0.02734375,0.19140625-0.1572265625,0.287109375t-0.4580078125,0.150390625t-0.5537109375,0.068359375t-0.4306640625,0.013671875q-0.533203125,0-0.8544921875-0.3759765625t-0.4990234375-0.9638671875t-0.2392578125-1.3193359375t-0.0751953125-1.4423828125z M177.13932828125,50.21875q0-0.19140625,0.41015625-0.328125t0.9296875-0.2255859375t1.0048828125-0.1298828125t0.6630859375-0.068359375q0-0.369140625,0.02734375-0.7451171875t0.150390625-0.669921875t0.3896484375-0.4716796875t0.7451171875-0.177734375q0.396484375,0,0.6015625,0.095703125t0.4375,0.396484375q0.0546875,0.1640625,0.0546875,0.314453125l0,0.4580078125t-0.02734375,0.4716796875q0.505859375-0.0546875,1.0048828125-0.1298828125t1.0048828125-0.0751953125q0.369140625,0,0.505859375,0.013671875t0.2734375,0.328125q0.109375,0.314453125-0.2666015625,0.478515625t-0.90234375,0.24609375t-1.0458984375,0.123046875t-0.62890625,0.041015625q-0.1640625,2.3515625-0.3349609375,4.662109375t-0.1708984375,4.689453125q0,1.06640625,0.068359375,2.201171875t0.3828125,2.146484375q0.08203125,0.314453125,0.2734375,0.587890625t0.19140625,0.587890625q0,0.19140625-0.150390625,0.30078125t-0.3623046875,0.1845703125t-0.423828125,0.0888671875t-0.3486328125,0.013671875q-0.861328125,0-1.3125-0.642578125t-0.6494140625-1.5380859375t-0.2119140625-1.8388671875t-0.013671875-1.53125q0-1.203125,0.0478515625-2.4609375t0.1162109375-2.48828125t0.19140625-2.40625t0.287109375-2.1875q-0.478515625,0.0546875-0.9365234375,0.123046875t-0.9365234375,0.068359375q-0.109375,0-0.2939453125-0.013671875t-0.3486328125-0.068359375t-0.2802734375-0.150390625t-0.1162109375-0.2734375z"/></svg>
